# xmcd
#
# Track frame offsets: 
#        150
#        11767
#        23972
#        36380
#        47200
#        57730
#        69387
#        81640
#        93937
#        106335
#        117670
#        129282
#        140910
#        152637
#        165067
#        177460
#        189960
#        201332
#        214237
#        225677
#        238715
#        250707
#        263525
#        274945
#        288527
#        300490
#        313175
#        325342
#        337522
#
# Disc length: 4666 seconds
#
# Revision: 3
# Processed by: cddbd v1.5.2PL0 Copyright (c) Steve Scherf et al.
# Submitted via: ExactAudioCopy v1.1
#
DISCID=aa12381d
DTITLE=Bob Wills and His Texas Playboys - San Antonio Rose - Disc 10
DYEAR=2000
DGENRE=Country
TTITLE0=Steel Guitar Rag (inst) (alt - take 1) (mono)
TTITLE1=Swing Blues #1 (alt - take 2) (mono)
TTITLE2=Steel Guitar Stomp (inst) (alt - take 2) (mono)
TTITLE3=Tulsa Stomp (inst) (1937) (alt - take 2) (mono)
TTITLE4=Never No More Hard Times Blues (alt - take 1) (mono)
TTITLE5=Oozlin' Daddy Blues (alt - take 3) (mono)
TTITLE6=Black Rider (alt - take 1) (mono)
TTITLE7=Everybody Does It In Hawaii (alt - take 2) (mono)
TTITLE8=Alexander's Ragtime Band (alt - take 1) (mono)
TTITLE9=Gambling Polka Dot Blues (alt - take 2) (mono)
TTITLE10=Oh, Lady Be Good (alt - take 1) (mono)
TTITLE11=Way Down Upon The Swanee River (inst) (alt - take 2) (mono)
TTITLE12=Oh You Beautiful Doll (alt - take 2) (mono)
TTITLE13=Lone Star Rag (alt - take 2) (mono)
TTITLE14=There's Going To Be A Party (For The Old Folks) (alt - take 1
TTITLE14=) (mono)
TTITLE15=I Don't Lov'a Nobody (alt - take 2) (mono)
TTITLE16=That Brownskin Gal (alt - take 1) (mono)
TTITLE17=Corrine Corrina (alt - take 2) (mono)
TTITLE18=Bob Wills Special (inst) (alt - take 1) (mono)
TTITLE19=Big Beaver (inst) (alt - take 3) (mono)
TTITLE20=Big Beaver (inst) (alt - take 2) (mono)
TTITLE21=Liebestraum (inst) (alt - take 2) (mono)
TTITLE22=Lyla Lou (alt - take 2) (mono)
TTITLE23=New Worried Mind (alt - take 3) (mono)
TTITLE24=The Girl I Left Behind Me (alt - take 1) (mono)
TTITLE25=I Knew The Moment I Lost You (alt - take 2) (mono)
TTITLE26=Twin Guitar Special (inst) (alt - take 2) (mono)
TTITLE27=Twin Guitar Special (inst) (alt - take 3) (mono)
TTITLE28=Takin' It Home (alt - take 2) (mono)
EXTD=
EXTT0=
EXTT1=
EXTT2=
EXTT3=
EXTT4=
EXTT5=
EXTT6=
EXTT7=
EXTT8=
EXTT9=
EXTT10=
EXTT11=
EXTT12=
EXTT13=
EXTT14=
EXTT15=
EXTT16=
EXTT17=
EXTT18=
EXTT19=
EXTT20=
EXTT21=
EXTT22=
EXTT23=
EXTT24=
EXTT25=
EXTT26=
EXTT27=
EXTT28=
PLAYORDER=
